<svg xmlns="http://www.w3.org/2000/svg" width="32" height="32" viewBox="0 0 32 32">
  <defs>
    <linearGradient id="g" x1="0" y1="0" x2="1" y2="1">
      <stop offset="0%" stop-color="#8b5cf6"/>
      <stop offset="100%" stop-color="#22c55e"/>
    </linearGradient>
  </defs>
  <circle cx="16" cy="16" r="16" fill="url(#g)"/>
  <g transform="translate(6 4) scale(0.833)" fill="white">
    <path d="M8.25 4.5a3.75 3.75 0 1 1 7.5 0v8.25a3.75 3.75 0 1 1-7.5 0V4.5Z"/>
    <path d="M6 10.5a.75.75 0 0 1 .75.75v1.5a5.25 5.25 0 1 0 10.5 0v-1.5a.75.75 0 0 1 1.5 0v1.5a6.751 6.751 0 0 1-6 6.709v2.291h3a.75.75 0 0 1 0 1.5h-7.5a.75.75 0 0 1 0-1.5h3v-2.291a6.751 6.751 0 0 1-6-6.709v-1.5A.75.75 0 0 1 6 10.5Z"/>
  </g>
</svg>
